<svg width="26" height="18" viewBox="0 0 26 18" fill="none" xmlns="http://www.w3.org/2000/svg">
<path d="M25.8429 8.31562C23.395 3.35578 18.5489 0 13 0C7.45105 0 2.60359 3.35813 0.157059 8.31609C0.0537998 8.52821 0 8.76256 0 9.00023C0 9.23791 0.0537998 9.47226 0.157059 9.68438C2.60494 14.6442 7.45105 18 13 18C18.5489 18 23.3964 14.6419 25.8429 9.68391C25.9462 9.47179 26 9.23744 26 8.99977C26 8.76209 25.9462 8.52774 25.8429 8.31562ZM13 15.75C11.7144 15.75 10.4577 15.3541 9.38877 14.6124C8.31985 13.8707 7.48673 12.8165 6.99476 11.5831C6.50279 10.3497 6.37407 8.99251 6.62487 7.68314C6.87567 6.37377 7.49474 5.17103 8.40378 4.22703C9.31282 3.28302 10.471 2.64015 11.7319 2.3797C12.9928 2.11925 14.2997 2.25292 15.4874 2.76381C16.6751 3.2747 17.6903 4.13987 18.4045 5.2499C19.1188 6.35993 19.5 7.66498 19.5 9C19.5004 9.88654 19.3325 10.7645 19.006 11.5836C18.6795 12.4028 18.2008 13.1471 17.5971 13.7739C16.9934 14.4008 16.2767 14.898 15.4879 15.2371C14.6991 15.5761 13.8537 15.7504 13 15.75ZM13 4.5C12.6132 4.50561 12.2289 4.56537 11.8575 4.67766C12.1637 5.10969 12.3106 5.64135 12.2716 6.17622C12.2326 6.71109 12.0104 7.21376 11.6451 7.59305C11.2799 7.97234 10.7958 8.20314 10.2808 8.24361C9.76572 8.28407 9.25375 8.13151 8.83772 7.81359C8.60081 8.71996 8.64358 9.68066 8.95999 10.5605C9.2764 11.4403 9.85053 12.1949 10.6016 12.7181C11.3526 13.2413 12.2427 13.5068 13.1467 13.4771C14.0506 13.4475 14.9228 13.1242 15.6405 12.5528C16.3583 11.9814 16.8854 11.1907 17.1477 10.2919C17.41 9.39308 17.3943 8.43149 17.1028 7.54246C16.8113 6.65342 16.2586 5.8817 15.5226 5.33593C14.7866 4.79015 13.9044 4.49779 13 4.5Z" fill="#A8A8A8"/>
</svg>
